<svg width="162" height="55" viewBox="0 0 162 55" fill="none" xmlns="http://www.w3.org/2000/svg">
<g clip-path="url(#clip0_966_11069)">
<path fill-rule="evenodd" clip-rule="evenodd" d="M49.92 18.23C49.98 17.87 49.76 17.63 49.35 17.63H47.19C46.74 17.63 46.37 17.84 46.05 18.21L40.75 24.3C40.59 24.47 40.51 24.58 40.43 24.58C40.35 24.58 40.32 24.47 40.28 24.3L39.04 18.21C38.97 17.87 38.75 17.63 38.3 17.63H36.44C35.99 17.63 35.58 17.91 35.43 18.36L30.45 33.21C30.45 33.21 30.45 33.25 30.44 33.27C30.41 33.44 30.57 33.5 30.72 33.5H33.54C33.73 33.5 33.96 33.31 34.04 33.07L37.01 24.16C37.06 24.01 37.12 23.99 37.17 23.99C37.23 23.99 37.27 24.03 37.3 24.14L38.04 27.66C38.11 27.92 38.28 28.02 38.56 28.02H40.27C40.55 28.02 40.8 27.91 41.03 27.66L44.13 24.14C44.23 24.03 44.28 23.99 44.35 23.99C44.39 23.99 44.43 24.01 44.42 24.1C44.42 24.12 44.42 24.14 44.41 24.16L41.44 33.07C41.44 33.07 41.43 33.13 41.43 33.16C41.4 33.35 41.46 33.5 41.63 33.5H44.45C44.62 33.5 44.82 33.44 44.9 33.2L49.88 18.38C49.89 18.32 49.92 18.27 49.92 18.23Z" fill="white"/>
<path fill-rule="evenodd" clip-rule="evenodd" d="M59.67 22.89C59.61 23.3 59.47 23.77 59.3 24.3L58.45 26.84C57.6 29.4 56.38 30.49 54.58 30.49C53.17 30.49 52.53 29.93 52.79 28.33C52.86 27.9 52.98 27.41 53.18 26.83L54.03 24.29C54.92 21.62 56.08 20.64 57.88 20.64C59.31 20.64 59.94 21.28 59.68 22.88L59.67 22.89ZM63.39 22.63C63.97 19 61.82 17.44 58.96 17.44C55.39 17.44 52.11 19 50.33 24.3L49.48 26.84C49.28 27.42 49.15 27.95 49.07 28.46C48.52 31.96 50.57 33.69 53.5 33.69C57.52 33.69 60.46 31.83 62.13 26.83L62.98 24.29C63.18 23.69 63.31 23.14 63.39 22.62V22.63Z" fill="white"/>
<path fill-rule="evenodd" clip-rule="evenodd" d="M77.79 17.97C77.82 17.78 77.67 17.63 77.46 17.63H66.86C66.63 17.63 66.38 17.8 66.3 18.04L65.57 20.24C65.57 20.24 65.57 20.28 65.56 20.33C65.53 20.52 65.64 20.65 65.85 20.65H69.33L65.18 33.08C65.18 33.08 65.18 33.12 65.17 33.17C65.14 33.36 65.24 33.51 65.46 33.51H68.26C68.49 33.51 68.76 33.32 68.84 33.08L72.99 20.65H76.45C76.69 20.65 76.97 20.48 77.05 20.24L77.78 18.04C77.78 18.04 77.78 18 77.79 17.98V17.97Z" fill="white"/>
<path fill-rule="evenodd" clip-rule="evenodd" d="M86.26 22.89C86.2 23.3 86.06 23.77 85.89 24.3L85.04 26.84C84.19 29.4 82.97 30.49 81.17 30.49C79.76 30.49 79.12 29.93 79.38 28.33C79.45 27.9 79.57 27.41 79.77 26.83L80.62 24.29C81.51 21.62 82.67 20.64 84.47 20.64C85.9 20.64 86.53 21.28 86.27 22.88L86.26 22.89ZM89.97 22.63C90.55 19 88.4 17.44 85.54 17.44C81.97 17.44 78.69 19 76.91 24.3L76.06 26.84C75.86 27.42 75.73 27.95 75.65 28.46C75.1 31.96 77.15 33.69 80.08 33.69C84.1 33.69 87.04 31.83 88.71 26.83L89.56 24.29C89.76 23.69 89.89 23.14 89.97 22.62V22.63Z" fill="white"/>
<path fill-rule="evenodd" clip-rule="evenodd" d="M100.82 21.99C100.46 24.23 99.08 24.75 96.99 24.75C96.76 24.75 95.73 24.73 95.5 24.71L96.88 20.61C97.14 20.59 98.26 20.55 98.56 20.55C100.23 20.55 101.01 20.89 100.83 22L100.82 21.99ZM104.55 21.52C105.01 18.64 103.16 17.58 99.96 17.58H95.41C94.71 17.69 94.1 18.02 93.86 18.75L89.07 33.08V33.1C89.07 33.1 89.06 33.14 89.06 33.16C89.03 33.35 89.13 33.5 89.35 33.5H92.13C92.36 33.5 92.63 33.31 92.71 33.07L94.51 27.64C94.92 27.64 95.57 27.68 96.02 27.68C96.19 27.68 96.32 27.66 96.41 27.66H96.43L97.5 33.06C97.55 33.27 97.54 33.49 97.77 33.49H100.87C101.13 33.49 101.28 33.34 101.31 33.17C101.32 33.11 101.31 33.06 101.29 33L100.09 26.98C102.72 26.13 104.16 24.05 104.57 21.51L104.55 21.52Z" fill="white"/>
<path fill-rule="evenodd" clip-rule="evenodd" d="M113.53 30.92C113.56 30.71 113.44 30.56 113.22 30.56H109.55C108.74 30.56 108.41 30.35 108.52 29.66C108.54 29.51 108.6 29.32 108.67 29.1L112.36 18.06C112.36 18.06 112.36 18.02 112.37 17.97C112.4 17.78 112.3 17.63 112.08 17.63H109.28C109.05 17.63 108.78 17.82 108.7 18.06L105.01 29.1C104.88 29.48 104.82 29.85 104.73 30.17C104.01 32.8 104.83 33.54 107.18 33.54H112.15C112.48 33.48 112.74 33.25 112.83 32.97L113.51 30.98C113.51 30.98 113.51 30.94 113.52 30.92H113.53Z" fill="white"/>
<path fill-rule="evenodd" clip-rule="evenodd" d="M125.22 26.69H122.04L125.32 20.79C125.44 20.58 125.54 20.47 125.73 20.47C125.92 20.47 125.93 20.58 125.89 20.79L125.21 26.69H125.22ZM128.16 33.07V33.05L129.41 19.81C129.61 17.76 128.12 17.58 126.65 17.58C125.18 17.58 123.52 17.76 122.34 19.81L114.73 33.05C114.7 33.11 114.67 33.18 114.66 33.24C114.64 33.39 114.73 33.5 114.92 33.5H117.97C118.18 33.5 118.4 33.33 118.52 33.12L120.46 29.62H124.84L124.43 33.12C124.4 33.33 124.52 33.5 124.73 33.5H127.66C127.89 33.5 128.11 33.33 128.16 33.07Z" fill="white"/>
<path fill-rule="evenodd" clip-rule="evenodd" d="M147.92 17.97C147.95 17.78 147.82 17.63 147.61 17.63H145.09C144.86 17.63 144.61 17.8 144.53 18.04L141.5 27.08C141.45 27.23 141.36 27.27 141.32 27.27C141.26 27.27 141.26 27.23 141.22 27.1L138.94 18.3C138.81 17.77 138.32 17.64 137.89 17.64H136.27C135.82 17.64 135.34 18 135.18 18.45L130.3 33.08C130.3 33.08 130.3 33.12 130.29 33.14C130.26 33.35 130.36 33.5 130.57 33.5H133.09C133.32 33.5 133.59 33.31 133.67 33.07L136.56 24.42C136.6 24.29 136.65 24.25 136.72 24.25C136.79 24.25 136.82 24.29 136.86 24.42L139.07 32.84C139.21 33.42 139.69 33.5 140.14 33.5H141.93C142.38 33.5 142.84 33.14 143 32.69L147.91 18.04C147.91 18.04 147.91 18 147.92 17.98V17.97Z" fill="white"/>
<path fill-rule="evenodd" clip-rule="evenodd" d="M157.31 22.93C157.25 23.29 157.14 23.72 156.98 24.19L156.05 26.95C155.08 29.83 153.72 30.6 151.67 30.6C151.14 30.6 150.46 30.58 150.16 30.56L153.51 20.58C153.81 20.56 154.5 20.54 155.03 20.54C156.63 20.54 157.59 21.07 157.3 22.93H157.31ZM161.02 22.65C162.11 18.84 160.43 17.58 156.88 17.58H151.7C151.26 17.64 150.71 18.02 150.55 18.51L145.81 32.63C145.78 32.72 145.76 32.78 145.75 32.84C145.7 33.18 145.99 33.47 146.3 33.54H151.06C156.13 33.54 158.07 31.77 159.69 26.95L160.62 24.19C160.81 23.66 160.88 23.13 161.01 22.65H161.02Z" fill="white"/>
<path fill-rule="evenodd" clip-rule="evenodd" d="M0 0L15.21 1.75C15.21 1.75 17.98 23.6 27.38 38.8C32.8 47.56 42.22 50.58 42.22 50.58L18.08 49.59C18.08 49.59 5.29 12.39 4.63 11.08C4.51 10.83 4.42 10.4 4.18 9.62C2.78 6.47 0 0 0 0Z" fill="#FBBC00"/>
<path fill-rule="evenodd" clip-rule="evenodd" d="M4.17999 9.61C4.17999 9.61 13.18 34.5 36.72 42.22C51.25 46.98 65.85 43.92 70.05 43.12C77.44 41.72 88.22 40.7 92.05 40.41C122.75 38.11 142.75 46.96 154.44 49.61C157.61 50.33 162.16 51.33 161.99 51.01C161.83 50.68 139.25 38.94 118.89 38.28C98.53 37.62 85.64 40.17 54.69 47.88C40.86 51.33 34.41 53.88 27.84 54.12C21.11 54.37 15.34 50.48 10.85 40C6.66999 30.23 4.17999 9.61 4.17999 9.61Z" fill="#D4021D"/>
<path fill-rule="evenodd" clip-rule="evenodd" d="M81.07 51.32H79.57L80.63 48.79C80.67 48.69 80.71 48.65 80.79 48.65C80.87 48.65 80.89 48.68 80.9 48.79L81.07 51.32ZM82.41 53.88V53.86L81.95 48.53C81.89 47.82 81.35 47.66 80.92 47.66C80.45 47.66 79.93 47.74 79.58 48.53L77.25 53.86C77.25 53.86 77.23 53.91 77.23 53.94C77.23 54.01 77.28 54.05 77.36 54.05H78.3C78.38 54.05 78.45 53.98 78.49 53.91L79.17 52.29H81.13L81.23 53.91C81.23 53.99 81.29 54.05 81.37 54.05H82.24C82.34 54.05 82.42 53.97 82.42 53.88H82.41Z" fill="white"/>
<path fill-rule="evenodd" clip-rule="evenodd" d="M89.62 49.36C89.62 50.32 89.02 50.64 88.14 50.64C88 50.64 87.52 50.62 87.38 50.61L87.72 48.7C87.87 48.68 88.3 48.67 88.48 48.67C89.23 48.67 89.62 48.84 89.62 49.36ZM90.81 49.22C90.81 48.16 89.93 47.66 88.66 47.66C88.04 47.66 87.43 47.7 86.98 47.77C86.8 47.8 86.7 47.86 86.66 48.03L85.63 53.88V53.91C85.63 53.99 85.68 54.05 85.77 54.05H86.62C86.71 54.05 86.8 53.97 86.82 53.88L87.22 51.57C87.51 51.59 87.76 51.6 87.98 51.6H88.15L88.96 53.87C88.99 53.97 89.03 54.04 89.12 54.04H90.1C90.18 54.04 90.23 53.98 90.23 53.91C90.23 53.89 90.23 53.88 90.23 53.87L89.33 51.39C90.32 51.08 90.84 50.21 90.84 49.21L90.81 49.22Z" fill="white"/>
<path fill-rule="evenodd" clip-rule="evenodd" d="M96.93 51.32H95.43L96.49 48.79C96.53 48.69 96.57 48.65 96.65 48.65C96.73 48.65 96.75 48.68 96.76 48.79L96.93 51.32ZM98.27 53.88V53.86L97.81 48.53C97.75 47.82 97.21 47.66 96.78 47.66C96.31 47.66 95.79 47.74 95.44 48.53L93.11 53.86C93.11 53.86 93.09 53.91 93.09 53.94C93.09 54.01 93.14 54.05 93.22 54.05H94.16C94.24 54.05 94.31 53.98 94.35 53.91L95.03 52.29H96.99L97.09 53.91C97.09 53.99 97.15 54.05 97.23 54.05H98.1C98.2 54.05 98.28 53.97 98.28 53.88H98.27Z" fill="white"/>
<path fill-rule="evenodd" clip-rule="evenodd" d="M106.22 47.95C106.22 47.87 106.17 47.83 106.08 47.81C105.81 47.76 105.09 47.66 104.28 47.66C103.27 47.66 101.9 48.08 101.51 50.28L101.3 51.51C101.26 51.73 101.24 51.94 101.24 52.12C101.24 53.65 102.41 54.12 103.12 54.12C104 54.12 104.56 54.06 105 53.98C105.12 53.95 105.18 53.89 105.2 53.78L105.7 50.92V50.89C105.7 50.81 105.65 50.75 105.56 50.75H104.72C104.63 50.75 104.54 50.83 104.52 50.92L104.14 53.09C103.88 53.11 103.61 53.12 103.3 53.12C102.88 53.12 102.44 52.9 102.44 52.07C102.44 51.91 102.46 51.73 102.49 51.52L102.7 50.29C102.9 49.15 103.5 48.68 104.17 48.68C104.99 48.68 105.5 48.71 105.88 48.75H105.91C106.04 48.75 106.09 48.69 106.11 48.57L106.21 48C106.21 48 106.21 47.97 106.21 47.96L106.22 47.95Z" fill="white"/>
<path fill-rule="evenodd" clip-rule="evenodd" d="M113.52 46.05C113.52 46.05 113.48 46 113.43 46H112.45C112.34 46 112.31 46.03 112.21 46.13L111.22 47.15C111.22 47.15 111.17 47.22 111.17 47.24C111.17 47.27 111.2 47.29 111.24 47.29H112.06C112.16 47.29 112.2 47.26 112.28 47.18L113.47 46.13C113.47 46.13 113.52 46.08 113.52 46.05ZM112.75 49.69C112.75 49.87 112.73 50.08 112.69 50.32L112.49 51.47C112.3 52.58 111.87 53.09 110.97 53.09C110.31 53.09 109.97 52.84 109.97 52.1C109.97 51.92 109.99 51.71 110.03 51.46L110.23 50.31C110.43 49.15 110.87 48.68 111.75 48.68C112.42 48.68 112.75 48.94 112.75 49.68V49.69ZM113.95 49.69C113.95 48.39 113.15 47.67 111.93 47.67C110.44 47.67 109.38 48.33 109.04 50.32L108.84 51.47C108.8 51.71 108.78 51.92 108.78 52.13C108.78 53.45 109.58 54.13 110.8 54.13C112.29 54.13 113.35 53.46 113.69 51.48L113.89 50.33C113.92 50.11 113.95 49.9 113.95 49.7V49.69Z" fill="white"/>
<path fill-rule="evenodd" clip-rule="evenodd" d="M122.07 47.86C122.07 47.78 122.02 47.72 121.93 47.72H121.2C121.11 47.72 121.03 47.79 121.01 47.88L120.22 52.36C120.22 52.41 120.18 52.44 120.16 52.44C120.13 52.44 120.12 52.41 120.11 52.37L118.83 48C118.76 47.78 118.69 47.73 118.51 47.73H117.65C117.46 47.73 117.28 47.88 117.25 48.07L116.23 53.88V53.91C116.23 53.99 116.29 54.05 116.37 54.05H117.09C117.18 54.05 117.27 53.97 117.29 53.88L118.04 49.6C118.04 49.55 118.07 49.53 118.1 49.53C118.13 49.53 118.14 49.55 118.16 49.6L119.38 53.74C119.46 54.05 119.64 54.05 119.85 54.05H120.65C120.84 54.05 121.02 53.9 121.05 53.71L122.08 47.89V47.86H122.07Z" fill="white"/>
</g>
<defs>
<clipPath id="clip0_966_11069">
<rect width="162" height="54.13" fill="white"/>
</clipPath>
</defs>
</svg>
